# xmcd
#
# Track frame offsets: 
#        150
#        31113
#        61853
#        77678
#        128817
#        164606
#        184839
#        203803
#
# Disc length: 2984 seconds
#
# Revision: 2
# Processed by: cddbd v1.5.2PL0 Copyright (c) Steve Scherf et al.
# Submitted via: ExactAudioCopy v0.99pb3
#
DISCID=630ba608
DTITLE=Chet Baker - Jazz Milestones
DYEAR=1900
DGENRE=Jazz
TTITLE0=When Lights are low
TTITLE1=Alone together
TTITLE2=Autumn in New York
TTITLE3=Once upon a summertime (la valse de lilas)
TTITLE4=Polka dots and moonbeams
TTITLE5=You'd bee so nice to come home to
TTITLE6=I've grown accustomed to her face
TTITLE7=Fine and dandy
EXTD=
EXTT0=
EXTT1=
EXTT2=
EXTT3=
EXTT4=
EXTT5=
EXTT6=
EXTT7=
PLAYORDER=
